<svg width="38" height="40" viewBox="0 0 38 40" fill="none" xmlns="http://www.w3.org/2000/svg">
<g clip-path="url(#clip0_289_280)">
<path d="M1.9272 17.5331C2.37716 13.0738 4.49063 8.96088 7.83111 6.04371C11.1716 3.12655 15.484 1.62795 19.8777 1.85742C24.2714 2.08688 28.4108 4.02687 31.441 7.27675C34.4713 10.5266 36.161 14.8382 36.1612 19.321H1.8386C1.5135 19.321 1.20171 19.4526 0.971823 19.6868C0.74194 19.9211 0.612793 20.2388 0.612793 20.57C0.612793 20.9013 0.74194 21.219 0.971823 21.4532C1.20171 21.6875 1.5135 21.8191 1.8386 21.8191H36.1612C36.4863 21.8191 36.7981 21.6875 37.028 21.4532C37.2578 21.219 37.387 20.9013 37.387 20.57" stroke="white" stroke-miterlimit="10"/>
<path d="M22.5752 25.8784L25.512 22.0532" stroke="white" stroke-miterlimit="10" stroke-linecap="round"/>
<path d="M22.8688 22.0142L19.9195 26.0866L17.1228 29.3135" stroke="white" stroke-miterlimit="10" stroke-linecap="round"/>
<path d="M31.4368 22.1312L27.4785 29.0009L26.1943 30.5C22.7994 34.4629 19.7236 37.5114 14.8962 39.3755" stroke="white" stroke-miterlimit="10" stroke-linecap="round"/>
<path d="M11.0322 21.819C11.5199 21.819 11.9876 22.0164 12.3324 22.3677C12.6772 22.7191 12.8709 23.1956 12.8709 23.6925V28.9124C12.8695 29.3957 13.0073 29.8687 13.2672 30.273C13.527 30.6773 13.8976 30.995 14.333 31.1867C14.6855 31.3174 15.0562 31.3898 15.4311 31.4011C17.7698 31.5304 20.0762 30.7987 21.9295 29.3395L23.5799 28.0656L28.5766 22.0532" stroke="white" stroke-miterlimit="10" stroke-linecap="round"/>
<path d="M9.832 22.1052L9.81777 27.0233C9.8106 28.7747 9.32639 30.4897 8.41907 31.9772C7.34822 33.5903 6.76511 35.488 6.74194 37.4353V39.3054" stroke="white" stroke-miterlimit="10" stroke-linecap="round"/>
<ellipse cx="15.3226" cy="29.3131" rx="0.612903" ry="0.624516" fill="white"/>
<path d="M19 0V1.83451" stroke="white" stroke-miterlimit="10"/>
</g>
<defs>
<clipPath id="clip0_289_280">
<rect width="38" height="40" fill="white"/>
</clipPath>
</defs>
</svg>
