<svg width="40" height="40" viewBox="0 0 40 40" fill="none" xmlns="http://www.w3.org/2000/svg">
<g clip-path="url(#clip0_289_277)">
<path d="M16.3684 18.5544C16.2217 18.7881 16.2926 19.0965 16.5263 19.2432C16.7599 19.3896 17.0683 19.3191 17.2147 19.0854L22.4924 10.6712L23.9691 12.7888C24.1563 13.0572 24.6023 13.0572 24.7887 12.7888L26.2754 10.6564L27.7613 12.7888C27.9477 13.0572 28.3945 13.0572 28.5809 12.7888L30.0652 10.6568L31.55 12.7888C31.6434 12.923 31.7966 13.003 31.9598 13.003C32.1233 13.003 32.2766 12.923 32.37 12.7888L33.9043 10.5855L39.1336 19.082C39.2277 19.2352 39.3916 19.3195 39.5594 19.3195C39.6489 19.3195 39.7389 19.2955 39.8209 19.2451C40.0557 19.1007 40.1289 18.793 39.9844 18.5582L28.7082 0.237486C28.6175 0.0907251 28.4577 0.000762395 28.2847 0C28.2843 0 28.2835 0 28.2828 0C28.1112 0 27.9511 0.0884378 27.86 0.234055L20.1305 12.5566L12.5481 0.237486C12.4574 0.0907251 12.2973 0.000762395 12.1246 0C12.1242 0 12.123 0 12.1227 0C11.9507 0 11.7906 0.0884378 11.6995 0.234055L0.208336 18.5544C0.0611935 18.7881 0.132096 19.0965 0.36577 19.2432C0.448109 19.2947 0.539978 19.3195 0.630703 19.3195C0.797286 19.3195 0.959676 19.2364 1.05421 19.0854L6.33227 10.6712L7.80865 12.7888C7.9962 13.0572 8.44106 13.0572 8.62861 12.7888L10.1157 10.6564L11.6016 12.7888C11.788 13.0572 12.2347 13.0572 12.4211 12.7888L13.9051 10.6568L15.3903 12.7888C15.4833 12.923 15.6365 13.003 15.8001 13.003C15.9636 13.003 16.1169 12.923 16.2099 12.7888L17.7438 10.5855L19.5385 13.5009L16.3684 18.5544ZM15.8001 11.6288L14.3149 9.49677C14.1285 9.22917 13.6814 9.22879 13.495 9.49716L12.0114 11.6288L10.5254 9.49677C10.4324 9.36297 10.2792 9.28292 10.1157 9.28292C9.95213 9.28292 9.79965 9.36259 9.70587 9.49677L8.21844 11.6296L6.90903 9.75141L12.1185 1.44626L17.1728 9.65764L15.8001 11.6288ZM28.279 1.44626L33.3329 9.65764L31.9598 11.6288L30.475 9.49716C30.2886 9.22879 29.8419 9.22879 29.6555 9.49716L28.1711 11.6292L26.6856 9.49677C26.5922 9.36297 26.4389 9.28292 26.2754 9.28292C26.1122 9.28292 25.959 9.36259 25.8656 9.49677L24.3789 11.6296L23.0695 9.75141L28.279 1.44626Z" fill="white"/>
<path d="M0.586664 39.9998H39.5588C39.8351 39.9998 40.0585 39.7764 40.0585 39.5004C40.0585 39.2244 39.8351 39.0006 39.5588 39.0006H29.7464V33.1569C32.6477 32.9263 34.9326 30.689 34.9326 27.9676C34.9326 26.8534 34.5415 25.7674 33.8248 24.8754C34.0444 24.3562 34.1553 23.8126 34.1553 23.2557C34.1553 22.2874 33.8145 21.3466 33.1882 20.5724C33.3586 20.147 33.4444 19.704 33.4444 19.2504C33.4444 17.1233 31.5647 15.3927 29.2539 15.3927C26.9423 15.3927 25.0622 17.1233 25.0622 19.2504C25.0622 19.704 25.1484 20.147 25.3184 20.5724C24.8949 21.0962 24.6055 21.6973 24.4603 22.3305C24.1519 22.4418 23.8664 22.6061 23.6125 22.8177C23.1063 22.3976 22.4743 22.1639 21.8156 22.1639C20.6784 22.1639 19.6664 22.847 19.2013 23.8957C17.7794 24.0756 16.6747 25.332 16.6747 26.85C16.6747 27.2769 16.7651 27.7 16.9374 28.0881C16.7651 28.4758 16.6747 28.8989 16.6747 29.3262C16.6747 30.8327 17.7695 32.0865 19.18 32.2771C19.6336 33.3418 20.6723 34.0588 21.8156 34.0588C22.2726 34.0588 22.7137 33.9399 23.112 33.7306V39.0006H9.17848V36.5385H14.5194C14.691 36.5385 14.8503 36.4504 14.9422 36.3056C15.0333 36.1607 15.0447 35.9793 14.9708 35.8241L12.6798 31.0005H13.3949C13.5672 31.0005 13.7273 30.9116 13.8188 30.7653C13.9103 30.6193 13.9194 30.4363 13.844 30.2811L11.7988 26.0941H12.2048C12.384 26.0941 12.5486 25.9984 12.6382 25.8436C12.727 25.6885 12.7263 25.4975 12.6367 25.3431L9.111 19.2901C8.93146 18.9824 8.42675 18.9824 8.24721 19.2901L4.72151 25.3431C4.63155 25.4975 4.63117 25.6885 4.71999 25.8436C4.80919 25.9984 4.97425 26.0941 5.15303 26.0941H5.55939L3.51464 30.2811C3.43917 30.4363 3.44831 30.6193 3.5398 30.7653C3.63129 30.9116 3.79139 31.0005 3.96369 31.0005H4.67844L2.38706 35.8241C2.31349 35.9793 2.32454 36.1607 2.41603 36.3056C2.50752 36.4504 2.66724 36.5385 2.8384 36.5385H8.17936V39.0006H0.586664C0.310296 39.0006 0.0869141 39.2244 0.0869141 39.5004C0.0869141 39.7764 0.310296 39.9998 0.586664 39.9998ZM8.67911 20.5343L11.3353 25.0949H6.02254L8.67911 20.5343ZM6.67134 26.0941H10.6865L12.5948 30.001H4.76383L6.67134 26.0941ZM5.78467 31.0005H11.5732L13.7292 35.539H3.629L5.78467 31.0005ZM29.2539 16.3918C31.0135 16.3918 32.4453 17.6742 32.4453 19.2504C32.4453 19.6572 32.348 20.0551 32.1559 20.4318C32.0606 20.6197 32.093 20.8469 32.2367 21.0005C32.8299 21.6321 33.1562 22.433 33.1562 23.2557C33.1562 23.7634 33.0338 24.2578 32.7918 24.7256C32.6949 24.9116 32.7254 25.138 32.8669 25.2928C33.5549 26.0445 33.9334 26.9944 33.9334 27.9676C33.9334 30.2907 31.8338 32.1803 29.2539 32.1803C26.6732 32.1803 24.5735 30.2907 24.5735 27.9676C24.5735 26.9944 24.9521 26.0445 25.6401 25.2928C25.7815 25.1384 25.8117 24.912 25.7156 24.7259C25.4735 24.2574 25.3508 23.7627 25.3508 23.2557C25.3508 22.433 25.6771 21.6321 26.2699 21.0005C26.4139 20.8469 26.446 20.6197 26.351 20.4318C26.1585 20.0551 26.0617 19.6572 26.0617 19.2504C26.0617 17.6742 27.4939 16.3918 29.2539 16.3918ZM20.0197 31.6622C19.9576 31.4503 19.764 31.3039 19.5429 31.3024C18.5125 31.2966 17.6742 30.41 17.6742 29.3262C17.6742 28.9774 17.763 28.6336 17.9315 28.3309C18.0158 28.18 18.0158 27.9962 17.9315 27.8449C17.763 27.5426 17.6742 27.1984 17.6742 26.85C17.6742 25.7597 18.5167 24.8731 19.5547 24.8731C19.7731 24.8731 19.9664 24.7309 20.0312 24.5224C20.2854 23.7097 21.0028 23.1634 21.8156 23.1634C22.3561 23.1634 22.8711 23.41 23.2287 23.8408C23.324 23.9552 23.4642 24.0215 23.6125 24.0215H23.6133C23.7616 24.0215 23.9026 23.9555 23.9972 23.8412C24.1062 23.7104 24.2312 23.6018 24.3639 23.5065C24.3925 23.9754 24.4961 24.4339 24.6825 24.875C23.9655 25.7674 23.574 26.8534 23.574 27.9676C23.574 29.9724 24.8156 31.7133 26.6286 32.5851C26.2923 32.8866 25.8631 33.0597 25.4114 33.0597C24.8712 33.0597 24.3559 32.8123 23.9972 32.3815C23.8077 32.1528 23.4189 32.1536 23.2287 32.3819C22.8711 32.8123 22.3561 33.0597 21.8156 33.0597C20.9845 33.0597 20.2629 32.4982 20.0197 31.6622ZM24.1115 33.7291C24.5106 33.9395 24.9532 34.0588 25.4114 34.0588C26.2809 34.0588 27.0932 33.6513 27.6376 32.9617C27.9944 33.0589 28.3653 33.1249 28.7473 33.1561V39.0006H24.1115V33.7291Z" fill="white"/>
</g>
<defs>
<clipPath id="clip0_289_277">
<rect width="40" height="40" fill="white"/>
</clipPath>
</defs>
</svg>
