<svg width="40" height="40" viewBox="0 0 40 40" fill="none" xmlns="http://www.w3.org/2000/svg">
<path d="M1.2501 25.0781C1.2501 24.9124 1.31595 24.7534 1.43316 24.6362C1.55037 24.519 1.70934 24.4531 1.8751 24.4531H18.6329C18.7987 24.4531 18.9576 24.519 19.0749 24.6362C19.1921 24.7534 19.2579 24.9124 19.2579 25.0781C19.2579 25.2439 19.1921 25.4029 19.0749 25.5201C18.9576 25.6373 18.7987 25.7031 18.6329 25.7031H1.8751C1.70934 25.7031 1.55037 25.6373 1.43316 25.5201C1.31595 25.4029 1.2501 25.2439 1.2501 25.0781ZM38.7501 31.875C38.7501 32.0408 38.6842 32.1997 38.567 32.3169C38.4498 32.4342 38.2909 32.5 38.1251 32.5C37.4479 32.5003 36.7858 32.2997 36.2228 31.9234C36.0194 31.7871 35.7801 31.7143 35.5353 31.7143C35.2904 31.7143 35.0511 31.7871 34.8478 31.9234C34.2812 32.3015 33.6148 32.5022 32.9337 32.5C31.7618 32.5 31.0821 31.9312 30.8712 31.8336C30.3767 31.6445 29.9821 31.7062 29.6563 31.9234C29.0931 32.2995 28.4309 32.5003 27.7536 32.5003C27.0763 32.5003 26.4142 32.2995 25.8509 31.9234C25.6475 31.7871 25.4082 31.7143 25.1634 31.7143C24.9185 31.7143 24.6792 31.7871 24.4759 31.9234C24.3266 32.0222 24.1699 32.1092 24.0071 32.1836C23.8936 32.2857 23.7465 32.3426 23.5938 32.3437C23.1059 32.4965 22.5898 32.5381 22.0837 32.4654C21.5775 32.3926 21.0941 32.2075 20.6688 31.9234C20.4648 31.789 20.2257 31.7174 19.9813 31.7174C19.737 31.7174 19.4979 31.789 19.2938 31.9234C18.7285 32.2996 18.0647 32.5003 17.3856 32.5003C16.7066 32.5003 16.0427 32.2996 15.4774 31.9234C15.2733 31.789 15.0343 31.7174 14.7899 31.7174C14.5456 31.7174 14.3065 31.789 14.1024 31.9234C13.5391 32.2995 12.877 32.5003 12.1997 32.5003C11.5224 32.5003 10.8603 32.2995 10.297 31.9234C10.0936 31.7871 9.85431 31.7143 9.60947 31.7143C9.36463 31.7143 9.12532 31.7871 8.92197 31.9234C8.35884 32.2996 7.69683 32.5003 7.01963 32.5003C6.34243 32.5003 5.68042 32.2996 5.11729 31.9234C4.91378 31.7871 4.67435 31.7143 4.4294 31.7143C4.18444 31.7143 3.94501 31.7871 3.74151 31.9234C3.19075 32.2913 2.54516 32.4916 1.88291 32.5C1.71715 32.5021 1.55736 32.4382 1.43868 32.3225C1.32001 32.2067 1.25217 32.0486 1.2501 31.8828C1.24803 31.7171 1.31189 31.5573 1.42763 31.4386C1.54338 31.3199 1.70153 31.2521 1.86729 31.25C2.28905 31.2448 2.70023 31.1172 3.05088 30.8828C3.4596 30.6097 3.94015 30.4639 4.43174 30.4639C4.92333 30.4639 5.40388 30.6097 5.8126 30.8828C6.17077 31.123 6.59228 31.2512 7.02354 31.2512C7.45479 31.2512 7.8763 31.123 8.23447 30.8828C8.64304 30.6096 9.12346 30.4638 9.61494 30.4638C10.1064 30.4638 10.5868 30.6096 10.9954 30.8828C11.3536 31.123 11.7751 31.2512 12.2063 31.2512C12.6376 31.2512 13.0591 31.123 13.4173 30.8828C13.826 30.6097 14.3066 30.4639 14.7981 30.4639C15.2897 30.4639 15.7703 30.6097 16.179 30.8828C16.5389 31.1224 16.9615 31.2502 17.3938 31.2502C17.8262 31.2502 18.2488 31.1224 18.6087 30.8828C19.0174 30.6097 19.498 30.4639 19.9896 30.4639C20.4811 30.4639 20.9617 30.6097 21.3704 30.8828C21.8399 31.1968 22.4134 31.3151 22.9688 31.2125V20.8594C22.9688 18.3484 26.2501 17.4828 26.2501 18.8281C26.2501 18.9939 26.1842 19.1529 26.067 19.2701C25.9498 19.3873 25.7909 19.4531 25.6251 19.4531C25.2521 19.4531 24.8944 19.6013 24.6307 19.865C24.367 20.1287 24.2188 20.4864 24.2188 20.8594V22.4219H30.4688V20.8594C30.4688 20.1549 30.7487 19.4793 31.2468 18.9811C31.745 18.483 32.4206 18.2031 33.1251 18.2031C33.8296 18.2031 34.5052 18.483 35.0033 18.9811C35.5015 19.4793 35.7813 20.1549 35.7813 20.8594V22.4609C35.7813 22.6267 35.7155 22.7857 35.5983 22.9029C35.4811 23.0201 35.3221 23.0859 35.1563 23.0859C34.9906 23.0859 34.8316 23.0201 34.7144 22.9029C34.5972 22.7857 34.5313 22.6267 34.5313 22.4609V20.8594C34.5313 20.4864 34.3832 20.1287 34.1195 19.865C33.8557 19.6013 33.4981 19.4531 33.1251 19.4531C32.7521 19.4531 32.3944 19.6013 32.1307 19.865C31.867 20.1287 31.7188 20.4864 31.7188 20.8594V24.4531H38.1251C38.2909 24.4531 38.4498 24.519 38.567 24.6362C38.6842 24.7534 38.7501 24.9124 38.7501 25.0781C38.7501 25.2439 38.6842 25.4029 38.567 25.5201C38.4498 25.6373 38.2909 25.7031 38.1251 25.7031H31.7188V30.8797C32.0791 31.121 32.5028 31.2499 32.9364 31.2499C33.37 31.2499 33.7938 31.121 34.154 30.8797C34.5627 30.6065 35.0433 30.4607 35.5349 30.4607C36.0265 30.4607 36.507 30.6065 36.9157 30.8797C37.2731 31.1205 37.6941 31.2494 38.1251 31.25C38.2909 31.25 38.4498 31.3158 38.567 31.4331C38.6842 31.5503 38.7501 31.7092 38.7501 31.875ZM24.2188 23.6719V27.1094H30.4688V23.6719H24.2188ZM30.4688 30.475V28.3594H24.2188V30.6523C24.5956 30.4967 25.0049 30.4363 25.4106 30.4765C25.8162 30.5167 26.2057 30.6562 26.5446 30.8828C26.9027 31.1232 27.3243 31.2516 27.7556 31.2516C28.1869 31.2516 28.6084 31.1232 28.9665 30.8828C29.4111 30.5905 29.9374 30.4476 30.4688 30.475ZM34.586 12.6031L37.7196 15.2758C37.8458 15.3833 38.0095 15.4363 38.1748 15.4231C38.3401 15.41 38.4933 15.3317 38.6009 15.2055C38.7084 15.0793 38.7614 14.9155 38.7482 14.7503C38.735 14.585 38.6567 14.4318 38.5306 14.3242L35.397 11.6516C35.2708 11.544 35.107 11.491 34.9418 11.5042C34.7765 11.5174 34.6233 11.5957 34.5157 11.7219C34.4082 11.8481 34.3552 12.0118 34.3684 12.1771C34.3816 12.3423 34.4598 12.4956 34.586 12.6031ZM2.22432 21.3781L13.2032 13.9898C13.645 13.6906 14.1712 13.5411 14.7043 13.5637C15.2374 13.5862 15.7492 13.7794 16.1642 14.1148C16.2278 14.1692 16.3018 14.2102 16.3816 14.2355C16.4614 14.2607 16.5455 14.2697 16.6288 14.2618C16.7122 14.2539 16.7931 14.2293 16.8668 14.1896C16.9405 14.1498 17.0054 14.0957 17.0578 14.0304C17.1101 13.965 17.1488 13.8898 17.1715 13.8093C17.1943 13.7287 17.2006 13.6444 17.1901 13.5613C17.1796 13.4783 17.1526 13.3982 17.1105 13.3258C17.0685 13.2533 17.0123 13.1901 16.9454 13.1398C16.323 12.6367 15.5553 12.3468 14.7557 12.3131C13.956 12.2793 13.1666 12.5034 12.504 12.9523L1.52588 20.3406C1.45776 20.3865 1.39933 20.4453 1.35395 20.5138C1.30856 20.5822 1.2771 20.6589 1.26135 20.7395C1.24561 20.8201 1.2459 20.903 1.2622 20.9835C1.2785 21.064 1.31049 21.1405 1.35635 21.2086C1.40221 21.2767 1.46104 21.3351 1.52948 21.3805C1.59792 21.4259 1.67462 21.4574 1.75522 21.4731C1.83582 21.4889 1.91873 21.4886 1.99922 21.4723C2.07971 21.456 2.1562 21.424 2.22432 21.3781ZM18.404 18.3102L23.672 14.2094C24.1806 14.3242 24.1712 14.2969 27.5618 14.2969C28.8712 14.2952 30.1264 13.7743 31.0522 12.8484C31.9779 11.9225 32.4986 10.6672 32.5001 9.35781V9.02188C32.5001 5.8586 29.2126 3.70938 26.3438 5.13047C26.2687 5.16594 26.2014 5.21604 26.1458 5.27785C26.0902 5.33965 26.0475 5.41192 26.0202 5.49042C25.9929 5.56892 25.9816 5.65207 25.9868 5.73502C25.992 5.81797 26.0138 5.89904 26.0507 5.97349C26.0876 6.04794 26.1391 6.11427 26.2019 6.16861C26.2648 6.22295 26.3379 6.2642 26.4169 6.28995C26.496 6.3157 26.5793 6.32543 26.6622 6.31857C26.745 6.31171 26.8256 6.2884 26.8993 6.25C28.9392 5.23985 31.2501 6.78594 31.2501 9.02188V9.35781C31.2491 10.3359 30.8601 11.2736 30.1685 11.9652C29.4768 12.6568 28.5391 13.0458 27.561 13.0469H24.4454C23.2259 13.0469 22.2134 12.0789 22.1884 10.8898C22.1815 10.575 22.2422 10.2624 22.3662 9.97293C22.4903 9.68349 22.6748 9.42395 22.9075 9.21177C23.1402 8.99958 23.4156 8.83967 23.7152 8.74277C24.0149 8.64588 24.3318 8.61424 24.6446 8.65C24.8094 8.66855 24.9747 8.62089 25.1043 8.51753C25.2339 8.41416 25.3171 8.26355 25.3356 8.09883C25.3542 7.93411 25.3065 7.76876 25.2032 7.63917C25.0998 7.50958 24.9492 7.42636 24.7845 7.40781C24.0254 7.31764 23.2579 7.48277 22.603 7.87715C21.9482 8.27152 21.4433 8.8727 21.168 9.58583C20.8927 10.299 20.8627 11.0835 21.0827 11.8155C21.3027 12.5476 21.7601 13.1856 22.3829 13.6289L17.636 17.3242C17.5091 17.4273 17.4276 17.5761 17.4091 17.7386C17.3906 17.9011 17.4365 18.0644 17.537 18.1934C17.6375 18.3224 17.7846 18.4069 17.9467 18.4288C18.1088 18.4506 18.273 18.408 18.404 18.3102ZM3.59385 6.875C3.59385 5.99426 3.85502 5.13329 4.34434 4.40098C4.83365 3.66867 5.52913 3.0979 6.34284 2.76085C7.15654 2.4238 8.05191 2.33562 8.91574 2.50744C9.77956 2.67927 10.573 3.10339 11.1958 3.72617C11.8186 4.34895 12.2427 5.14242 12.4145 6.00624C12.5864 6.87006 12.4982 7.76544 12.1611 8.57914C11.8241 9.39284 11.2533 10.0883 10.521 10.5776C9.78868 11.067 8.92772 11.3281 8.04697 11.3281C6.86631 11.3269 5.73436 10.8573 4.89951 10.0225C4.06466 9.18761 3.59509 8.05566 3.59385 6.875ZM4.84385 6.875C4.84385 7.50852 5.03171 8.12781 5.38367 8.65456C5.73564 9.18131 6.2359 9.59187 6.82119 9.8343C7.40649 10.0767 8.05053 10.1402 8.67187 10.0166C9.29322 9.89299 9.86396 9.58792 10.3119 9.13995C10.7599 8.69199 11.065 8.12125 11.1886 7.4999C11.3121 6.87855 11.2487 6.23451 11.0063 5.64922C10.7638 5.06392 10.3533 4.56366 9.82654 4.2117C9.29978 3.85974 8.68049 3.67188 8.04697 3.67188C7.19745 3.67188 6.38273 4.00935 5.78202 4.61005C5.18132 5.21075 4.84385 6.02548 4.84385 6.875ZM20.5071 36.25C20.0762 36.2505 19.6549 36.1227 19.297 35.8828C18.8883 35.6097 18.4077 35.4639 17.9161 35.4639C17.4245 35.4639 16.944 35.6097 16.5353 35.8828C16.1771 36.123 15.7556 36.2512 15.3243 36.2512C14.8931 36.2512 14.4716 36.123 14.1134 35.8828C13.7048 35.6096 13.2244 35.4638 12.7329 35.4638C12.2414 35.4638 11.761 35.6096 11.3524 35.8828C11.2144 35.9747 11.1186 36.1177 11.086 36.2802C11.0534 36.4428 11.0867 36.6116 11.1786 36.7496C11.2705 36.8876 11.4135 36.9834 11.576 37.016C11.7386 37.0486 11.9074 37.0153 12.0454 36.9234C12.2488 36.7871 12.4881 36.7143 12.7329 36.7143C12.9778 36.7143 13.2171 36.7871 13.4204 36.9234C13.9837 37.2995 14.6458 37.5003 15.3231 37.5003C16.0005 37.5003 16.6626 37.2995 17.2259 36.9234C17.43 36.789 17.669 36.7174 17.9134 36.7174C18.1578 36.7174 18.3968 36.789 18.6009 36.9234C19.165 37.3005 19.8286 37.5012 20.5071 37.5C20.6729 37.5 20.8319 37.4342 20.9491 37.3169C21.0663 37.1997 21.1321 37.0408 21.1321 36.875C21.1321 36.7092 21.0663 36.5503 20.9491 36.4331C20.8319 36.3158 20.6729 36.25 20.5071 36.25Z" fill="white"/>
</svg>
