<svg width="40" height="40" viewBox="0 0 40 40" fill="none" xmlns="http://www.w3.org/2000/svg">
<g opacity="0.9">
<path d="M38.8219 24.112C38.8148 24.066 38.7972 24.023 38.777 23.9815L37.1121 21.0609H37.7179C38.6885 21.0819 39.2035 19.8438 38.5043 19.1704C38.5043 19.1704 35.028 15.6744 35.028 15.6744H36.6298C37.063 15.6744 37.4471 15.4312 37.6323 15.0395C37.8174 14.648 37.7617 14.1967 37.4868 13.862L35.1683 11.038H35.6116C36.4738 11.058 37.0297 10.0272 36.537 9.31822C36.537 9.31822 32.3353 2.95441 32.3353 2.95441C32.1921 2.72352 31.8264 2.72355 31.6832 2.95441L29.0573 6.93158L28.8051 6.48927C28.7356 6.36734 28.6061 6.29212 28.4658 6.29212H13.086C12.9826 6.29384 12.8812 6.33614 12.8081 6.40858C12.7838 6.43225 12.7661 6.46169 12.7467 6.48927L10.5989 10.2568C9.46919 10.2569 5.45855 10.2567 4.38861 10.2568C4.11853 10.2499 3.97402 9.97467 4.11523 9.74886L7.99098 3.87864L10.3841 7.50322C10.6765 7.92516 11.31 7.51055 11.0361 7.07261L8.31698 2.95442C8.17375 2.72414 7.80817 2.72311 7.66498 2.95442L3.46325 9.31823C2.97159 10.0258 3.52559 11.0592 4.38864 11.038C4.38861 11.038 4.83187 11.038 4.83187 11.038L2.51345 13.8618C2.23856 14.1966 2.1828 14.648 2.36795 15.0395C2.55312 15.4312 2.93719 15.6744 3.37037 15.6744H4.97217L1.49592 19.1704C1.17427 19.4939 1.08325 19.9567 1.25842 20.378C1.43367 20.7992 1.82597 21.0609 2.28228 21.0609H4.43975L2.88722 23.7843H1.70945C1.49948 23.7843 1.32706 23.9503 1.31914 24.1602C1.31962 24.1769 1.17117 28.0336 1.17197 28.0484V30.622C1.17197 30.8377 1.34683 31.0126 1.56259 31.0126H22.8557C22.5118 31.481 21.937 31.6851 21.3485 31.6421C20.4143 31.6241 19.5901 32.4449 19.6095 33.3812V36.8297C19.6095 37.0455 19.7843 37.2203 20.0001 37.2203H38.4376C38.6534 37.2203 38.8282 37.0455 38.8282 36.8297C38.814 35.5358 38.846 25.65 38.8219 24.112ZM37.9503 19.7212C38.1555 19.9345 38.0145 20.2747 37.7179 20.2797H36.6667L34.196 15.9456L37.9503 19.7212ZM36.883 14.3576C37.0591 14.5777 36.9109 14.8895 36.6298 14.8932C36.2741 14.8932 33.8883 14.8931 33.596 14.8932L31.3983 11.038H34.1576L36.883 14.3576ZM32.0092 3.87861L35.885 9.74881C36.0278 9.97637 35.8785 10.2506 35.6116 10.2568C34.7688 10.2568 31.8438 10.2567 30.9529 10.2568L29.4911 7.69252L32.0092 3.87861ZM3.37039 14.8932C3.08869 14.8895 2.94153 14.5775 3.11723 14.3576L5.84263 11.038H10.1393L10.1477 11.0483L7.95584 14.8932L3.37039 14.8932ZM2.2823 20.2797C1.98567 20.2749 1.84481 19.9343 2.04997 19.7212L6.07398 15.6744H7.51047L4.88514 20.2797H2.2823ZM5.45106 20.8644C7.00547 18.1385 11.6087 10.0637 13.086 7.47145L22.3856 23.7843H21.127L13.4254 10.2752C13.3541 10.1559 13.2247 10.0821 13.086 10.0781C12.9476 10.0823 12.8175 10.1554 12.7467 10.2752L5.04506 23.7843H3.78652L5.45106 20.8644ZM5.94441 23.7843L9.82639 16.9751H10.6314V23.7843H5.94441ZM10.2722 16.1938L12.6953 11.9434V16.1937C12.1816 16.1936 10.7648 16.1938 10.2722 16.1938ZM15.1516 16.1938C15.15 16.1934 13.4783 16.1938 13.4766 16.1937V11.9434L15.8998 16.1938H15.1516ZM11.4126 16.9751H14.7595V23.7843H11.4126V16.9751ZM15.5407 16.9751H16.3457L20.2277 23.7843H15.5407V16.9751ZM20.6717 32.7043C20.9078 32.4519 21.2528 32.4036 21.5814 32.4234C23.692 32.4376 24.7598 29.8372 23.2663 28.3545C22.8151 27.9051 22.2167 27.6578 21.5814 27.6578H3.65039C3.1402 27.6689 3.13106 28.4252 3.65039 28.439H21.5814C22.5121 28.416 23.3093 29.3092 23.169 30.2313H1.95323V28.0551L2.08561 24.5656C12.5512 24.5657 25.1767 24.5655 35.712 24.5656C35.9278 24.5656 36.1026 24.3907 36.1026 24.1749C36.1026 23.9592 35.9278 23.7843 35.712 23.7843H23.2849L13.7584 7.07334H28.2388C28.5368 7.59667 30.019 10.1975 30.3481 10.7744C30.364 10.8204 30.3881 10.8621 30.4189 10.8985L32.1021 13.851H22.8745C22.6587 13.851 22.4839 14.0258 22.4839 14.2416V16.3345C22.483 16.4015 22.5051 16.4636 22.5323 16.523L25.3054 21.5568C25.3743 21.6785 25.5064 21.7577 25.6472 21.759C25.6475 21.7593 32.183 21.7588 32.1833 21.759C32.3991 21.759 32.574 21.5841 32.574 21.3684V16.7251H32.7742C32.9899 16.7251 33.1648 16.5503 33.1648 16.3345V15.7151C34.3374 17.7723 36.896 22.2592 38.047 24.2785V34.339H21.3485C20.5091 34.3499 20.0676 33.2886 20.6717 32.7043ZM25.2569 19.8497L23.5357 16.7251H25.2569V19.8497ZM26.0382 14.6322H32.3835V15.9439H26.0382V14.6322ZM25.2569 15.9439H23.2651V14.6322H25.2569V15.9439ZM26.0382 16.7251H31.7927V20.9778H26.0382V16.7251ZM38.047 36.439H20.3907V34.8321C20.6735 35.0187 21.0094 35.1194 21.3485 35.1202H38.047V36.439Z" fill="white"/>
<path d="M9.27276 36.4378C8.63463 36.4572 8.02962 36.1941 7.61207 35.7121C7.54104 35.6285 7.43743 35.5789 7.32712 35.5751C7.20969 35.5711 7.0948 35.6212 7.01752 35.7107C6.2183 36.6731 4.63637 36.6752 3.8343 35.7153C3.75946 35.6252 3.64669 35.5762 3.5302 35.5743C3.41698 35.5754 3.31016 35.6255 3.23699 35.7107C2.81929 36.1935 2.21512 36.4558 1.57516 36.4378C1.06076 36.4321 1.03493 37.1896 1.54984 37.2188C2.28371 37.2412 2.98813 36.9902 3.53379 36.5166C4.56932 37.4479 6.27613 37.4494 7.31346 36.516C7.85919 36.99 8.56415 37.2386 9.2981 37.2188C9.81287 37.1894 9.7874 36.4328 9.27276 36.4378Z" fill="white"/>
<path d="M16.9346 33.1935C16.2966 33.2115 15.6915 32.9499 15.274 32.4678C15.2007 32.3816 15.0928 32.3316 14.9789 32.3307C14.8672 32.327 14.7539 32.38 14.6791 32.4669C13.8795 33.4289 12.2982 33.4308 11.4961 32.4711C11.4213 32.3809 11.3071 32.3334 11.192 32.3301C11.0788 32.3311 10.972 32.3812 10.8988 32.4665C10.4812 32.9494 9.87524 33.2135 9.23698 33.1936C8.72342 33.1903 8.69607 33.9443 9.21165 33.9745C9.94453 33.994 10.65 33.7459 11.1956 33.2723C12.2297 34.2042 13.9419 34.2039 14.9759 33.2723C15.5215 33.7459 16.2257 33.9948 16.9599 33.9745C17.4738 33.945 17.4505 33.1896 16.9346 33.1935Z" fill="white"/>
<path d="M27.1794 31.7717C27.435 32.2213 28.0994 31.8633 27.8688 31.4042L27.6236 30.9443C27.522 30.7539 27.2853 30.682 27.0951 30.7834C26.9047 30.8848 26.8327 31.1215 26.9342 31.3118L27.1794 31.7717Z" fill="white"/>
<path d="M28.6187 32.0309C28.8242 32.0772 29.0385 31.9445 29.0834 31.7322L29.2367 31.0272C29.3336 30.5211 28.5961 30.3614 28.4733 30.8612L28.32 31.5662C28.2742 31.777 28.4079 31.985 28.6187 32.0309Z" fill="white"/>
<path d="M29.1934 27.5007C29.4492 27.9502 30.1134 27.592 29.8828 27.133L29.6376 26.6732C29.3836 26.2249 28.7174 26.5803 28.9482 27.041L29.1934 27.5007Z" fill="white"/>
<path d="M30.6326 27.76C30.8381 27.8063 31.0524 27.6735 31.0974 27.4612L31.2506 26.7563C31.3474 26.25 30.61 26.0904 30.4872 26.5903L30.334 27.2952C30.2881 27.5061 30.4219 27.714 30.6326 27.76Z" fill="white"/>
<path d="M33.455 29.8718C33.8283 30.2269 34.3626 29.693 34.0075 29.3195L33.6704 28.9822C33.2972 28.627 32.7628 29.1611 33.1179 29.5346L33.455 29.8718Z" fill="white"/>
<path d="M36.6092 29.1872C36.8021 29.2732 37.0371 29.1855 37.1236 28.9859L37.3382 28.4955C37.5327 28.0184 36.8407 27.7156 36.6224 28.1824L36.4078 28.6728C36.3214 28.8704 36.4115 29.1008 36.6092 29.1872Z" fill="white"/>
</g>
</svg>
