<svg width="53" height="46" viewBox="0 0 53 46" fill="none" xmlns="http://www.w3.org/2000/svg">
<path d="M30.7119 46V30.0769C30.7119 22.1744 32.4669 15.5103 35.9768 10.0846C39.6038 4.54103 45.2781 1.17949 53 0V9.2C48.4371 9.67179 45.2781 11.3231 43.5232 14.1538C41.8852 16.8667 41.0662 20.9359 41.0662 26.3615L34.0464 25.3H52.8245V46H30.7119ZM0 46V30.0769C0 22.1744 1.75497 15.5103 5.2649 10.0846C8.89183 4.54103 14.5662 1.17949 22.2881 0V9.2C17.7252 9.67179 14.5662 11.3231 12.8113 14.1538C11.1733 16.8667 10.3543 20.9359 10.3543 26.3615L3.33444 25.3H22.1126V46H0Z" fill="#061F2C"/>
</svg>
