<svg width="535" height="935" viewBox="0 0 535 935" fill="none" xmlns="http://www.w3.org/2000/svg">
<path opacity="0.43" fill-rule="evenodd" clip-rule="evenodd" d="M0 0C0 258.193 209.307 467.5 467.5 467.5C209.307 467.5 0 676.809 0 935H56.1C56.1 707.79 240.29 523.6 467.5 523.6C694.71 523.6 878.9 707.79 878.9 935H935C935 676.809 725.691 467.5 467.5 467.5C725.691 467.5 935 258.193 935 0H878.9C878.9 227.21 694.71 411.4 467.5 411.4C240.29 411.4 56.1 227.21 56.1 0H0ZM112.2 0C112.2 196.227 271.273 355.3 467.5 355.3C663.728 355.3 822.8 196.227 822.8 0H766.7C766.7 165.243 632.743 299.2 467.5 299.2C302.257 299.2 168.3 165.243 168.3 0H112.2ZM224.4 0C224.4 134.26 333.24 243.1 467.5 243.1C601.761 243.1 710.6 134.26 710.6 0H654.5C654.5 103.277 570.775 187 467.5 187C364.223 187 280.5 103.277 280.5 0H224.4ZM467.5 579.7C663.728 579.7 822.8 738.772 822.8 935H766.7C766.7 769.758 632.743 635.8 467.5 635.8C302.257 635.8 168.3 769.758 168.3 935H112.2C112.2 738.772 271.273 579.7 467.5 579.7ZM467.5 691.9C601.761 691.9 710.6 800.739 710.6 935H654.5C654.5 831.725 570.775 748 467.5 748C364.223 748 280.5 831.725 280.5 935H224.4C224.4 800.739 333.24 691.9 467.5 691.9Z" fill="#040406"/>
</svg>
