<svg width="701" height="136" viewBox="0 0 701 136" fill="none" xmlns="http://www.w3.org/2000/svg">
<path fill-rule="evenodd" clip-rule="evenodd" d="M96.8804 29.3737V38.2488H98.0048V39.8762H97.63C129.504 60.0033 111.629 66.252 115.379 70.252C109.255 70.1252 103.129 70.1252 96.8804 70.252H78.1271C80.5026 65.8758 62.0043 60.1259 95.0037 39.8762H94.6275V38.2488H95.7547V29.874C95.5053 29.874 95.2559 29.874 95.0037 29.874C93.6285 29.874 92.3802 28.999 91.8786 27.6238C92.5042 28.2508 93.2551 28.4988 94.1301 28.4988C96.004 28.4988 97.63 26.9997 97.63 25.1229C97.63 24.7453 97.5046 24.248 97.3806 24C98.1288 24.6228 98.5035 25.4963 98.5035 26.3755C98.5035 27.6238 97.878 28.7482 96.8804 29.3737ZM34.6267 78.0014C35.0001 77.2532 32.0018 76.374 37.4996 73.0009C42.7508 76.374 39.8765 77.3786 40.5007 78.0014C38.5 78.0014 36.6274 78.0014 34.6267 78.0014ZM34.3773 83.7513H40.3753V80.4981H34.3773V83.7513ZM35.5017 83.0032H36.6275V81.1236H35.5017V83.0032ZM38.2506 83.0032H39.2509V81.1236H38.2506V83.0032ZM36.8768 83.0032H37.8758V81.1236H36.8768V83.0032ZM33.6249 80.1261H41.2531V79.5019H33.6249V80.1261ZM33.6249 79.0031H41.2531V78.3761H33.6249V79.0031ZM33.6249 84.7489H41.2531V84.2501H33.6249V84.7489ZM33.6249 85.4999H41.2531V85.0011H33.6249V85.4999ZM34.2519 85.6253H40.5007V101.128H34.2519V85.6253ZM40.5007 102.13V115.505H34.2519V102.13H40.5007ZM40.5007 116.503V124.756H47.8752V86.5045L60.2516 84.0022V124.758H60.7504V77.2547H62.3777V76.7517H76.8788V72.3754H115.88V76.002V76.7502H130.879V77.2532H132.13V124.756H132.879V83.3752L144.88 86.7539V124.756H153.005V116.503H159.13V124.756H170.255V111.38H180.257V124.756H193.004V128.128H0V124.756H13.1259V111.38H23.2507V124.756H34.2519V116.503H40.5007ZM22.7506 48.747C22.125 47.6255 27.0014 46.2518 18.1249 40.878C9.50063 46.125 14.2503 47.7495 13.2499 48.747C16.375 48.747 19.6255 48.747 22.7506 48.747ZM23.0027 58.1237H13.3753V52.8711H23.0027V58.1237ZM21.25 57.0008H19.6255V54.0011H21.25V57.0008ZM16.7498 57.0008H15.1252V54.0011H16.7498V57.0008ZM19.0013 57.0008H17.3754V54.0011H19.0013V57.0008ZM24.4991 52.6245H12.0002V51.2508H24.4991V52.6245ZM24.4991 50.6266H12.0002V49.3782H24.4991V50.6266ZM24.4991 59.751H12.0002V58.5027H24.4991V59.751ZM24.4991 61.0008H12.0002V60.1258H24.4991V61.0008ZM193.004 136H0V129.254H193.004V136ZM23.2521 61.2516H13.1273V86.3748H23.2521V61.2516ZM170.633 48.747C171.381 47.6255 166.382 46.2518 175.382 40.878C184.004 46.125 179.256 47.7495 180.257 48.747C177.008 48.747 173.88 48.747 170.633 48.747ZM180.133 58.1237V52.8711H181.508V51.2508H169.005V52.8711H170.382V58.1237H169.005V59.6256V59.751V61.2502H170.255V86.3735H180.257V61.2502H181.508V59.751V59.6256V58.1237H180.133ZM172.257 57.0008H173.88V54.0011H172.257V57.0008ZM176.633 57.0008H178.381V54.0011H176.633V57.0008ZM174.505 57.0008H176.133V54.0011H174.505V57.0008ZM169.005 50.9986H181.508V49.3782H169.005V50.9986ZM180.257 88.0036V109.626H170.255V88.0036H180.257ZM79.2543 124.756H113.63V79.3765H79.2543V124.756ZM158.882 78.0014C158.507 77.2532 161.505 76.374 156.008 73.0009C150.631 76.374 153.631 77.3786 153.008 78.0014C155.004 78.0014 156.88 78.0014 158.882 78.0014ZM159.131 83.7513H153.132V80.4981H159.131V83.7513ZM157.88 83.0032H156.88V81.1236H157.88V83.0032ZM155.255 83.0032H154.258V81.1236H155.255V83.0032ZM156.506 83.0032H155.506V81.1236H156.506V83.0032ZM159.879 80.2515H152.257V79.5019H159.879V80.2515ZM159.879 79.0031H152.257V78.3761H159.879V79.0031ZM159.879 84.7489H152.257V84.1261H159.879V84.7489ZM159.879 85.6253H159.131V101.128H153.007V85.6253H152.257V85.0025H159.879V85.6253ZM153.007 102.13V115.505H159.131V102.13H153.007ZM13.1273 88.0036V109.626H23.2521V88.0036H13.1273ZM56.8771 111.753V121.003L50.5044 121.128V112.503C50.5044 110.878 53.5026 108.252 53.628 108.252C53.752 108.252 56.8771 110.129 56.8771 111.753ZM56.8771 96.2532V105.379L50.5044 106.129V97.0012C50.5044 95.2485 53.5026 92.6264 53.628 92.6264C53.752 92.501 56.8771 94.3764 56.8771 96.2532ZM136.505 111.753V121.003L142.88 121.128V112.503C142.88 110.878 139.757 108.252 139.633 108.252C139.506 108.252 136.505 110.129 136.505 111.753ZM136.505 96.2532V105.379L142.88 106.129V97.0012C142.88 95.2485 139.757 92.6264 139.633 92.6264C139.506 92.501 136.505 94.3764 136.505 96.2532ZM117.753 76.002C118.507 74.6269 112.503 73.0023 123.506 66.3746H123.382H123.007V65.8758H123.382V63.6257C123.258 63.6257 123.131 63.6257 123.007 63.6257C122.631 63.6257 122.13 63.2509 122.005 62.8733C122.13 62.9987 122.505 63.1241 122.759 63.1241C123.382 63.1241 123.88 62.6254 123.88 62.1224C123.88 62.0012 123.88 61.8758 123.758 61.7504C124.007 61.8758 124.131 62.1223 124.131 62.4985C124.131 62.8733 124.007 63.1227 123.758 63.3778V65.8744H124.007V66.3732H123.758H123.507C134.007 72.753 128.507 74.7509 129.506 76.0007L117.753 76.002ZM99.6293 98.251V105.379H106.881V98.003C106.881 93.7536 97.0058 88.0036 96.5042 88.0036C96.004 88.0036 86.1286 93.7536 86.1286 98.003V105.379H93.2551V98.251C93.2551 97.0013 96.2548 95.2485 96.5042 95.2485C96.6268 95.2499 99.6293 97.0027 99.6293 98.251ZM99.6293 114.124V121.128H93.2538V114.124C93.2538 112.749 96.2534 111.004 96.5028 111.004C96.6268 111.004 99.6293 112.751 99.6293 114.124ZM106.881 107.88H86.1286V121.128H83.1303V83.1286H109.756V121.128H106.881V107.88ZM66.6285 99.8756H69.1295V104.625H66.6285V99.8756ZM66.6285 116.376H69.1295V121.128H66.6285V116.376ZM124.004 116.376H126.504V121.128H124.004V116.376ZM124.004 99.8756H126.504V104.625H124.004V99.8756ZM64.3784 79.7499H66.6285V83.1286H64.3784V79.7499ZM126.88 79.7499H129.254V83.1286H126.88V79.7499ZM123.129 79.7499H125.38V83.1286H123.129V79.7499ZM119.253 79.7499H121.505V83.1286H119.253V79.7499ZM72.1277 79.7499H74.3792V83.1286H72.1277V79.7499ZM68.2531 79.7499H70.5032V83.1286H68.2531V79.7499ZM120.631 107.502H124.128C123.38 107.88 122.629 108.503 122.254 108.751C121.505 109.375 120.506 110.505 120.506 111.628V121.629H130.132V111.628C130.132 110.505 129.006 109.375 128.255 108.751C128.006 108.503 127.129 107.88 126.38 107.502H130.132V106.505H120.631V107.502ZM63.1272 90.5003H67.3781C66.6285 90.8779 65.2534 92.0022 64.8786 92.253C64.1262 92.8786 63.0019 94.0002 63.0019 95.1274V105.125H72.6279V95.1274C72.6279 94.0002 71.5036 92.8786 70.7526 92.253C70.3778 91.8768 69.1294 90.8765 68.2531 90.5003H72.6293V89.5028H63.1287V90.5003H63.1272ZM63.1272 107.502H66.7525C66.0015 107.88 65.128 108.503 64.8786 108.751C64.1262 109.375 63.0019 110.505 63.0019 111.628V121.629H72.6279V111.628C72.6279 110.505 71.629 109.375 70.7526 108.751C70.5032 108.503 69.7536 107.88 69.004 107.502H72.6293V106.505H63.1287V107.502H63.1272ZM120.381 90.5003H124.881C124.004 90.8779 122.629 91.8768 122.378 92.253C121.505 92.8786 120.506 94.0002 120.506 95.1274V105.125H130.132V95.1274C130.132 94.0002 129.006 92.8786 128.255 92.253C127.88 92.0022 126.505 90.8765 125.756 90.5003H129.756V89.5028H120.381V90.5003ZM69.8762 61.7504C70.1284 61.8758 70.2524 62.1223 70.2524 62.4985C70.2524 62.8733 70.1284 63.1227 69.8762 63.3778V65.8744H70.2524V66.3732H69.8762H69.6268H69.5028H69.128V65.8744H69.5028V63.6243C69.3774 63.6243 69.252 63.6243 69.128 63.6243C68.7518 63.6243 68.3771 63.2495 68.1263 62.8719C68.3785 62.9973 68.6264 63.1227 68.8772 63.1227C69.5028 63.1227 70.0016 62.6239 70.0016 62.1209C70.003 62.0012 70.003 61.8758 69.8762 61.7504ZM69.6282 66.3732C80.1278 72.753 74.754 74.7509 75.6276 76.0007H63.8768C64.7532 74.6269 58.627 73.0024 69.6282 66.3732Z" fill="#009EE2"/>
<path fill-rule="evenodd" clip-rule="evenodd" d="M665.924 84.0283V85.6949V99.2267V100.336V102.555V124.83V132.325L663.219 136H670.782H682.37H692.43L690.211 132.325H690.142V103.111L691.599 99.0867H686.395H688.059H690.072C690.557 93.1889 695.553 88.4705 701.52 88.4705C707.626 88.4705 712.554 93.1889 713.039 99.0867H715.052H716.786H711.513L712.971 103.111V132.325H712.901L710.265 136H720.604H731.774H739.408L737.256 132.325V124.83V102.555V100.336V99.2267V85.6949V84.0283V79.2418V78.6162L743.57 73.6898H743.778V73.4809V73.2041H737.256V68.4161V67.0998V65.9885V65.2259H665.924V65.9885V67.0998V68.4161V73.2041H659.333V73.3441V73.6898H659.679L665.924 78.6162V79.2418V84.0283Z" fill="#009EE2"/>
<path fill-rule="evenodd" clip-rule="evenodd" d="M663.911 94.4379V102.07V102.695V103.319H663.426V116.086V116.918V121.708V122.539V133.989V135.446V135.999H579.953V135.446V133.989V122.539V121.708V116.918V116.086V103.318H579.05V102.695V102.069V94.4372V93.397H580.23V86.2494V68.901V67.7912V52.2486V51.1357V19.2889H578.565V17.2061H581.895V14.084H583.076V13.1142H583.422L584.741 10.7547L586.128 8.25585L587.447 10.7547L588.766 13.1142H589.113V14.084H608.819V17.2061H612.219V19.2889H610.346V51.1357V52.2486V53.0816H618.533L619.853 43.1568L620.13 40.5212V26.366H617.91V24.6298H620.13V22.7559H622.004V24.6298H624.224V26.366H622.004V40.1739L622.42 43.156L623.738 53.0808H632.967V52.2479V51.1349V19.2881H631.301V17.2054H634.633V14.0832H653.923V13.1134H654.27L655.588 10.7539L656.906 8.25507L658.294 10.7539L659.543 13.1134H659.959V14.0832H661.556V17.2054H664.955V19.2881H663.083V51.1349V52.2479V67.7904V68.9002V86.2486V93.3962H663.914V94.4379H663.911ZM632.965 56.2045H623.666V62.0342L624.222 62.9336L627.413 67.932H632.965V67.792V56.2045ZM618.531 56.2045H610.343V67.792V67.932H614.785L617.908 62.9336L618.531 62.0342V56.2045ZM631.507 81.7391C631.23 76.7431 627.344 72.7888 622.417 72.4423C627.344 72.788 631.23 76.8127 631.507 81.7391ZM585.226 68.6257H605.349V67.7928V53.36H585.226V67.7928V68.6257ZM592.442 55.7892C591.749 55.7892 591.124 56.2045 591.124 56.6886V67.0287H593.761V56.6886C593.76 56.2045 593.205 55.7892 592.442 55.7892ZM597.646 55.7892C596.952 55.7892 596.327 56.2045 596.327 56.6886V67.0287H598.964V56.6886C598.964 56.2045 598.409 55.7892 597.646 55.7892ZM589.458 73.6905H586.752V70.9845H589.458V73.6905ZM603.683 73.6905H600.908V70.9845H603.683V73.6905ZM645.177 55.7892C644.483 55.7892 643.859 56.2045 643.859 56.6886V67.0287H646.496V56.6886C646.496 56.2045 645.94 55.7892 645.177 55.7892ZM650.382 55.7892C649.687 55.7892 649.132 56.2045 649.132 56.6886V67.0287H651.7V56.6886C651.7 56.2045 651.145 55.7892 650.382 55.7892ZM642.194 73.6905H639.486V70.9845H642.194V73.6905ZM656.419 73.6905H653.712V70.9845H656.419V73.6905ZM585.017 133.989H586.89V115.67C586.89 110.05 595.147 105.47 595.147 105.47C595.147 105.47 603.405 110.05 603.405 115.67V133.989H606.111V122.539V121.708V116.918V116.086V103.318H585.017V116.085V116.918V121.707V122.539V133.989ZM611.177 133.989H613.327V115.67C613.327 110.05 621.585 105.47 621.585 105.47C621.585 105.47 629.842 110.05 629.842 115.67V133.989H632.202V122.539V121.708V116.918V116.086V103.318H611.177V116.085V116.918V121.707V122.539V133.989ZM637.336 133.989H639.695V115.67C639.695 110.05 647.953 105.47 647.953 105.47C647.953 105.47 656.21 110.05 656.21 115.67V133.989H658.291V122.539V121.708V116.918V116.086V103.318H637.337V116.085V116.918V121.707V122.539L637.336 133.989Z" fill="#009EE2"/>
<path fill-rule="evenodd" clip-rule="evenodd" d="M519.792 22.5517L520.902 32.959L557.747 28.9351L556.638 18.527L519.792 22.5517ZM549.144 117.544C529.923 117.544 513.339 125.177 506.609 136H591.818C584.948 125.177 568.434 117.544 549.144 117.544ZM565.518 89.4418L526.384 93.7449L526.591 96.1037L565.797 91.8014L565.518 89.4418ZM550.393 2.08116L522.221 5.13445L522.013 3.05408L550.185 0L550.393 2.08116ZM557.4 14.9873L518.195 19.22L518.473 21.6484L557.608 17.3461L557.4 14.9873ZM558.996 29.8361L519.861 34.1392L520.069 36.5691L559.275 32.2661L558.996 29.8361ZM560.593 44.7553L521.457 49.0576L521.734 51.4164L560.87 47.1853L560.593 44.7553ZM562.258 59.6057L523.054 63.9065L523.4 66.3349L562.535 62.0341L562.258 59.6057ZM563.854 74.5226L524.719 78.8257L524.996 81.2541L564.131 76.9494L563.854 74.5226ZM525.898 17.6933L524.58 5.76012L548.241 3.19172L549.56 15.1249L525.898 17.6933ZM541.996 9.0895L542.414 13.3222L546.507 12.9069L546.09 8.67342C545.95 7.4948 544.911 6.5915 543.801 6.72993C542.691 6.86914 541.857 7.91011 541.996 9.0895ZM527.911 10.6865L528.396 14.9177L532.49 14.432L532.005 10.2009C531.864 9.01989 530.825 8.18774 529.715 8.32617C528.604 8.39578 527.771 9.43518 527.911 10.6865ZM534.919 9.92165L535.404 14.1551L539.497 13.6694L539.012 9.43597C538.943 8.25735 537.903 7.35403 536.722 7.56441C535.612 7.63402 534.849 8.67343 534.919 9.92165ZM552.822 21.0266L553.584 27.8934L556.013 27.6165L555.25 20.7474C555.18 20.1921 554.625 19.776 553.932 19.8441C553.237 19.9137 552.752 20.4009 552.822 21.0266ZM529.02 84.5147L529.853 91.3853L532.213 91.1069L531.45 84.2378C531.38 83.6817 530.825 83.2672 530.131 83.3353C529.507 83.4745 529.02 83.9609 529.02 84.5147ZM532.421 84.0978L533.183 91.0389L535.611 90.7597L534.849 83.8913C534.78 83.3353 534.224 82.92 533.531 82.9896C532.838 83.0584 532.351 83.6144 532.421 84.0978ZM535.821 83.8209L536.584 90.6228L538.944 90.4132L538.249 83.4745C538.179 82.9192 537.556 82.5711 536.862 82.6415C536.238 82.7119 535.752 83.1984 535.821 83.8209ZM539.151 83.4049L539.916 90.2716L542.343 89.9948L541.58 83.128C541.51 82.5704 540.955 82.2239 540.262 82.2239C539.568 82.3639 539.083 82.8511 539.151 83.4049ZM542.552 82.9888L543.315 89.926L545.674 89.6491L544.981 82.7815C544.912 82.2247 544.287 81.8086 543.662 81.8782C542.968 81.9478 542.483 82.5008 542.552 82.9888ZM545.882 82.7119L546.646 89.5099L549.075 89.3018L548.38 82.3631C548.311 81.8078 547.687 81.4621 546.992 81.531C546.299 81.6006 545.813 82.0855 545.882 82.7119ZM549.283 82.2943L550.045 89.1634L552.474 88.8865L551.711 82.0855C551.642 81.4621 551.018 81.1149 550.393 81.1149C549.698 81.2541 549.213 81.739 549.283 82.2943ZM552.683 81.9478L553.376 88.8162L555.874 88.5401L555.11 81.6686C555.041 81.1149 554.417 80.6996 553.723 80.7692C553.099 80.838 552.612 81.3918 552.683 81.9478ZM556.013 81.6006L556.776 88.4705L559.205 88.1936L558.442 81.3229C558.372 80.7692 557.747 80.3531 557.123 80.4235C556.498 80.4923 555.943 80.9765 556.013 81.6006ZM559.413 81.1853L560.106 88.0536L562.603 87.7752L561.841 80.9765C561.772 80.3524 561.216 80.0059 560.523 80.0059C559.829 80.1459 559.344 80.6292 559.413 81.1853ZM527.425 69.4578L528.119 76.3269L530.617 76.0501L529.854 69.1786C529.784 68.6256 529.229 68.2784 528.535 68.2784C527.841 68.4168 527.356 68.9017 527.425 69.4578ZM530.756 69.1113L531.588 75.9796L533.948 75.7028L533.184 68.8321C533.115 68.2784 532.56 67.8631 531.865 67.9327C531.241 68 530.756 68.5552 530.756 69.1113ZM534.156 68.7625L534.919 75.634L537.348 75.3563L536.584 68.416C536.515 67.9319 535.961 67.5158 535.266 67.5854C534.572 67.6543 534.086 68.1399 534.156 68.7625ZM537.487 68.3488L538.318 75.2171L540.677 75.0106L539.985 68.1399C539.846 67.5158 539.291 67.1694 538.597 67.1694C537.971 67.307 537.487 67.7927 537.487 68.3488ZM540.885 68L541.65 74.8707L544.078 74.5906L543.314 67.7231C543.244 67.1694 542.69 66.7517 541.995 66.8198C541.302 66.8886 540.817 67.4462 540.885 68ZM544.286 67.6543L545.049 74.5226L547.408 74.2442L546.715 67.307C546.646 66.8198 546.02 66.4037 545.397 66.4741C544.702 66.5429 544.216 67.0286 544.286 67.6543ZM547.617 67.239L548.38 74.1066L550.809 73.8977L550.045 67.0286C550.045 66.4029 549.422 66.0564 548.727 66.0564C548.033 66.1964 547.549 66.6821 547.617 67.239ZM551.018 66.8886L551.781 73.7593L554.14 73.4817L553.446 66.6117C553.377 66.0564 552.753 65.6404 552.128 65.7804C551.434 65.7796 550.947 66.3349 551.018 66.8886ZM554.417 66.5429L555.11 73.4136L557.608 73.1352L556.846 66.1964C556.776 65.7108 556.151 65.2947 555.458 65.3643C554.833 65.4339 554.279 65.9196 554.417 66.5429ZM557.747 66.126L558.511 72.9983L560.94 72.7879L560.177 65.9196C560.107 65.2939 559.482 64.9482 558.857 64.9482C558.234 65.0867 557.677 65.5723 557.747 66.126ZM525.76 54.4009L526.522 61.27L528.951 61.0612L528.188 54.124C528.119 53.5664 527.564 53.2199 526.87 53.2895C526.245 53.3599 525.69 53.8456 525.76 54.4009ZM529.159 54.0521L529.854 60.9228L532.351 60.6451L531.588 53.7752C531.518 53.2199 530.895 52.8039 530.269 52.8742C529.576 52.9431 529.091 53.4968 529.159 54.0521ZM532.49 53.7064L533.252 60.5755L535.681 60.2987L534.919 53.4295C534.849 52.8743 534.294 52.4582 533.601 52.5278C532.975 52.5974 532.49 53.0831 532.49 53.7064ZM535.89 53.2895L536.653 60.1602L539.082 59.9514L538.317 53.0831C538.248 52.4574 537.694 52.1117 536.999 52.1805C536.307 52.2501 535.821 52.7343 535.89 53.2895ZM539.221 52.9431L540.055 59.8122L542.414 59.5354L541.719 52.6654C541.581 52.1109 541.025 51.6941 540.332 51.7637C539.708 51.8341 539.221 52.3878 539.221 52.9431ZM542.622 52.5974L543.384 59.4657L545.813 59.1873L545.05 52.3205C544.981 51.7645 544.425 51.3468 543.732 51.4172C543.037 51.486 542.552 52.0413 542.622 52.5974ZM546.021 52.2502L546.785 59.0481L549.144 58.8409L548.451 51.9733C548.381 51.346 547.757 51.0004 547.062 51.07C546.438 51.1372 545.951 51.6253 546.021 52.2502ZM549.352 51.8341L550.115 58.7009L552.543 58.424L551.781 51.5572C551.781 50.9996 551.156 50.5827 550.462 50.7227C549.768 50.7908 549.283 51.2764 549.352 51.8341ZM552.752 51.486L553.515 58.3552L555.874 58.0783L555.179 51.2076C555.11 50.6539 554.486 50.2378 553.861 50.3074C553.168 50.3747 552.683 50.9307 552.752 51.486ZM556.082 51.1372L556.846 57.9391L559.344 57.7318L558.58 50.8604C558.511 50.237 557.887 49.8914 557.193 49.961C556.498 50.0282 556.013 50.5147 556.082 51.1372ZM524.164 39.4129L524.857 46.2108L527.286 46.0036L526.523 39.0664C526.523 38.5087 525.899 38.1631 525.274 38.2303C524.58 38.3007 524.025 38.7887 524.164 39.4129ZM527.494 38.9976L528.258 45.8643L530.687 45.5883L529.922 38.7887C529.853 38.1638 529.298 37.8174 528.603 37.8174C527.979 37.9542 527.425 38.4399 527.494 38.9976ZM530.895 38.5815L531.588 45.5186L534.086 45.241L533.253 38.3703C533.253 37.8166 532.63 37.4005 532.006 37.5382C531.31 37.5382 530.825 38.0942 530.895 38.5815ZM534.224 38.3007L534.989 45.1722L537.417 44.8953L536.654 37.9542C536.584 37.4686 536.029 37.0548 535.336 37.1229C534.711 37.1917 534.224 37.6782 534.224 38.3007ZM537.625 37.8846L538.387 44.7553L540.817 44.4793L540.054 37.6782C539.985 37.0548 539.429 36.7076 538.736 36.7076C538.041 36.8452 537.556 37.3309 537.625 37.8846ZM540.955 37.5382L541.788 44.4096L544.148 44.132L543.453 37.2605C543.315 36.7068 542.76 36.2915 542.065 36.4292C541.442 36.4292 540.955 36.9845 540.955 37.5382ZM544.356 37.1917L545.12 44.0632L547.549 43.784L546.784 36.9148C546.715 36.3596 546.159 35.945 545.465 36.0131C544.771 36.0827 544.286 36.5692 544.356 37.1917ZM547.755 36.7748L548.518 43.644L550.878 43.3663L550.185 36.5691C550.044 35.945 549.489 35.5947 548.796 35.5947C548.171 35.7339 547.687 36.2211 547.755 36.7748ZM551.086 36.4292L551.85 43.296L554.279 43.0199L553.515 36.1515C553.445 35.5939 552.891 35.1786 552.196 35.3178C551.503 35.3178 551.018 35.8715 551.086 36.4292ZM554.487 36.0827L555.25 42.9503L557.609 42.6734L556.916 35.8043C556.846 35.249 556.221 34.8329 555.597 34.9033C554.903 34.9721 554.416 35.4578 554.487 36.0827ZM522.498 24.3552L523.263 31.2267L525.69 30.9483L524.927 24.0095C524.857 23.5238 524.234 23.1078 523.539 23.1766C522.915 23.2462 522.429 23.7326 522.498 24.3552ZM525.898 23.9383L526.591 30.8098L529.02 30.5986L528.258 23.7319C528.258 23.1062 527.633 22.7574 527.008 22.7574C526.314 22.8974 525.76 23.3846 525.898 23.9383ZM529.228 23.5927L529.992 30.4602L532.421 30.1833L531.658 23.315C531.588 22.7574 531.033 22.3421 530.338 22.4813C529.645 22.4813 529.159 23.0389 529.228 23.5927ZM532.629 23.2462L533.323 30.1137L535.82 29.8369L534.989 22.9662C534.989 22.4125 534.363 21.9964 533.739 22.0668C533.044 22.1356 532.49 22.6197 532.629 23.2462ZM535.961 22.8278L536.723 29.6969L539.151 29.4896L538.387 22.6189C538.318 21.9948 537.763 21.6484 537.069 21.6484C536.445 21.7884 535.961 22.2725 535.961 22.8278ZM539.36 22.4813L540.123 29.3504L542.552 29.0743L541.789 22.2029C541.719 21.6492 541.165 21.2331 540.47 21.3723C539.776 21.3723 539.291 21.926 539.36 22.4813ZM542.691 22.1356L543.453 29.0047L545.882 28.7279L545.12 21.8572C545.05 21.3035 544.495 20.8874 543.801 20.957C543.176 21.0266 542.691 21.5099 542.691 22.1356ZM546.09 21.718L546.854 28.5871L549.283 28.3806L548.518 21.5092C548.449 20.8858 547.895 20.5401 547.199 20.609C546.507 20.6794 546.021 21.1635 546.09 21.718ZM549.421 21.3723L550.254 28.2414L552.611 27.9638L551.918 21.0939C551.78 20.5409 551.224 20.1225 550.531 20.2601C549.906 20.2594 549.421 20.817 549.421 21.3723ZM521.388 37.4686L522.498 47.8086L559.344 43.784L558.234 33.4455L521.388 37.4686ZM522.984 52.3878L524.164 62.7278L561.01 58.7016L559.83 48.3639L522.984 52.3878ZM524.649 67.307L525.76 77.6471L562.603 73.6216L561.494 63.2824L524.649 67.307ZM526.245 82.1543L527.424 92.5647L564.2 88.5401L563.091 78.132L526.245 82.1543ZM527.911 97.0743L530.27 119.002C530.825 118.86 531.38 118.723 532.006 118.515L530.201 102.486C530.062 100.892 531.45 99.5035 533.394 99.2266C535.336 99.017 537.001 100.126 537.141 101.793L538.805 117.198C539.429 117.127 539.985 117.058 540.609 116.988L538.944 101.585C538.806 99.9884 540.193 98.5329 542.066 98.3233C543.94 98.1129 545.675 99.2259 545.813 100.822L547.55 116.504C548.104 116.434 548.659 116.434 549.144 116.434H549.352L547.618 100.612C547.479 99.017 548.868 97.56 550.74 97.3504C552.683 97.1423 554.348 98.2537 554.556 99.8484L556.36 116.781C556.985 116.85 557.609 116.918 558.234 116.988L556.36 99.6411C556.152 98.1129 557.609 96.5878 559.483 96.3798C561.356 96.1725 563.092 97.2815 563.231 98.9458L565.381 118.306C566.075 118.443 566.839 118.651 567.532 118.86L564.757 93.0504L527.911 97.0743Z" fill="#009EE2"/>
</svg>
